# xmcd
#
# Track frame offsets:
#  150
#  21862
#  51913
#  77373
#  100733
#  131446
#  207653
#  233521
#  274912
#
# Disc length: 4193 seconds
#
# Revision: 0
# Processed by: cddbd v1.5.2PL0 Copyright (c) Steve Scherf et al.
# Submitted via: Collectorz.com_Music_Collector 6.11
#
DISCID=71105f09
DTITLE=Steve Winwood with Eric Clapton - Madison Square Garden 2008 (2CDs) [CD2)
DYEAR=2008
DGENRE=R&B
TTITLE0=After Midnight
TTITLE1=Split Decision
TTITLE2=Ramblin' On My Mind
TTITLE3=Georgia On My Mind
TTITLE4=Little Wing
TTITLE5=Voodoo Chile
TTITLE6=Can't Find My Way Home
TTITLE7=Cocaine
TTITLE8=Dear Mr. Fantasy
EXTD=
EXTT0=
EXTT1=
EXTT2=
EXTT3=
EXTT4=
EXTT5=
EXTT6=
EXTT7=
EXTT8=
PLAYORDER=
